<svg xmlns="http://www.w3.org/2000/svg" width="124" height="41" fill="none" viewBox="0 0 124 41"><path fill="#fff" d="m18.838 33.281 1.154-5.46-.692-.153-.846 1.768c-.769 1.615-1.884 2.192-5.844 2.192H9.92c-1.615 0-2.115-.346-2.115-3.96v-7.266h3.845c3.537 0 4.037.115 4.421 1.46l.462 1.616h.615v-7.613h-.615l-.423 1.423c-.385 1.345-.923 1.46-4.46 1.46H7.804V8.984h3.845c4.306 0 5.152.385 5.536 1.807l.462 1.692h.692V7.33H0v.577l1.576.423c1.577.423 1.807.692 1.807 3.96v16.032c0 3.268-.23 3.537-1.807 3.96L0 32.703v.577h18.838Zm67.952-.731 1.114-5.343-.769-.192-.884 1.96c-.961 2.153-3.614 3.191-6.228 3.191-6.805 0-10.15-5.805-10.15-12.571 0-5.69 2.538-11.342 8.996-11.342 2.692 0 5.844 1.038 6.382 3.306l.462 2.192h.769V6.408h-.692l-.154.461c-.192.577-.692.423-2.268.154-1.115-.23-2.768-.423-4.499-.423-8.15 0-13.955 5.113-13.955 13.687 0 8.573 5.959 13.532 14.224 13.532 3.115 0 6.19-.73 7.651-1.268Zm29.879.731v-.577l-.999-.384c-1.384-.5-1.769-.846-2.961-3.998l-8.112-21.338h-3.844l-.077.193c.5 1.076.538 1.384 0 2.652l-7.382 17.8c-1.537 3.73-1.845 4.191-3.19 4.691l-1 .384v.577h8.689v-.577l-1.577-.422c-1.653-.5-1.922-1.23-.23-5.537l1-2.652h9.495l1.5 4.229c1.115 3.075.769 3.537-.731 3.96l-1.653.422v.577h11.072Zm-10.803-10.88h-8.189l2.96-7.612c.539-1.423 1.115-2.884 1.269-3.537h.077c.154.576.577 1.96 1.115 3.46l2.768 7.689Z"/><path fill="#fff" d="M41.812 26.976c-1.884-2.384-3.73-5.075-4.575-6.459 2.422-.692 6.497-2.691 6.497-6.766 0-5.383-5.036-6.613-9.573-6.613-4.652 0-8.65.192-11.034.27v.576l1.577.423c1.576.384 1.807.653 1.807 3.921v15.994c0 3.268-.231 3.537-1.807 3.96l-1.576.422v.577h11.187v-.577l-1.576-.422c-1.576-.423-1.807-.692-1.807-3.96V8.752a13.23 13.23 0 0 1 1.615-.115c3.69 0 6.42 1.461 6.42 5.767 0 4.114-2.999 5.537-6.267 5.537h-1c1 1.23 2.884 3.844 4.46 6.305 5.652 8.317 13.965 13.763 25.686 13.763 12.175 0 35.588-4.806 62.154 0-18.62-4.485-35.562-3.524-59.086-2.243-12.563.685-19.425-6.138-23.102-10.79Z"/><path fill="#fff" d="M62.252 33.281v-.577l-1.576-.422c-1.577-.423-1.807-.692-1.807-3.96V9.29h-4.422v19.03c0 3.268-.23 3.538-1.806 3.96l-1.577.423v.577h11.188Z"/><path fill="#fff" d="M53.988 9.871c-.875-1.017-.861-2.85-.72-4.024l.668-5.611C53.955.1 54.115 0 54.303 0h.066c.202 0 .367.115.367.255V6.65c0 .16.188.29.419.29.23 0 .418-.13.418-.29V.255c0-.14.165-.255.367-.255.202 0 .372.114.372.255V6.65c0 .16.183.29.418.29.23 0 .419-.13.419-.29V.255c0-.14.165-.255.367-.255.202 0 .367.114.367.255V6.65c0 .16.188.29.418.29.23 0 .42-.13.42-.29V.255c0-.14.164-.255.37-.255h.062c.188 0 .348.101.367.236l.658 5.624c.132 1.175.145 3.002-.724 4.011 0 0-1.324 1.663-2.733 1.663S53.988 9.87 53.988 9.87Z"/></svg>